<svg width="310" height="122" viewBox="0 0 310 122" fill="none" xmlns="http://www.w3.org/2000/svg">
<path d="M0 0H309.5L237 122H0V0Z" fill="url(#paint0_linear_567_634)"/>
<path d="M0 108H231" stroke="white" stroke-width="9"/>
<path d="M227 110L295 -6.99999" stroke="white" stroke-width="9"/>
<path d="M32.9498 31.5865C36.5686 31.5865 41.0364 33.9507 46.353 38.6789C53.5907 47.0649 57.2095 55.7631 57.2095 64.7735C57.2095 73.7394 52.8088 79.8727 44.0074 83.1736L42.131 83.4412C37.3952 83.4412 33.687 80.0066 31.0063 73.1372H30.8723C29.3086 78.713 27.2088 81.5009 24.5728 81.5009H24.1707C20.6859 81.5009 18.2956 74.9437 17 61.8295V57.9488C17.0894 53.3097 18.4073 50.6557 20.9539 49.9866C21.6688 49.9866 22.3166 50.678 22.8974 52.0608C21.6018 53.845 20.9539 55.9415 20.9539 58.3502V58.9524C20.9539 67.2046 22.1602 73.3379 24.5728 77.3525C26.3599 76.0589 27.6779 70.7508 28.5267 61.4281C28.5267 53.8896 29.0852 50.1204 30.2021 50.1204L30.8723 49.9866C32.3466 49.9866 33.0838 51.4363 33.0838 54.3357L32.6817 61.6957C32.6817 66.647 34.2231 71.799 37.3058 77.1518C38.8248 78.6684 40.3662 79.4267 41.9299 79.4267C44.4765 79.4267 47.2018 77.8431 50.1058 74.6761C52.161 71.9551 53.1886 68.5205 53.1886 64.3721C53.1886 55.1832 49.1453 46.7526 41.0587 39.0804C38.9589 37.3853 35.7421 36.0025 31.4084 34.932L30.8723 33.6607C31.185 32.2779 31.8775 31.5865 32.9498 31.5865Z" fill="url(#paint1_linear_567_634)"/>
<path d="M72.3363 53.6666C74.3021 53.6666 75.285 54.4472 75.285 56.0084L74.6818 57.2797L74.2797 69.5241C74.2797 75.0553 75.3967 78.4899 77.6305 79.8281L77.7646 80.8318C77.6305 82.1253 77.0274 82.7721 75.9551 82.7721H75.553C72.2022 80.4972 70.5268 77.0179 70.5268 72.3343H70.0577C68.2706 77.3302 66.1038 79.8281 63.5572 79.8281C61.1893 79.159 60.0053 77.3971 60.0053 74.5423C60.0053 68.2528 62.5296 61.9856 67.5781 55.7408C69.2759 54.358 70.8619 53.6666 72.3363 53.6666ZM64.2273 71.8659L63.9593 73.7394V75.0107H64.6294C67.9802 66.6693 69.6556 61.5842 69.6556 59.7553H69.3876C66.7963 62.6547 65.0762 66.6916 64.2273 71.8659Z" fill="url(#paint2_linear_567_634)"/>
<path d="M82.7902 44.0986H83.1923C83.7731 44.0986 84.3316 44.5892 84.8677 45.5706L84.5997 50.1204V52.663L84.8677 64.3721L85.0688 65.0412H85.2698C87.1909 63.2569 88.8663 60.1122 90.296 55.607L91.7703 55.1386C93.0213 55.317 93.6468 55.8746 93.6468 56.8113C93.6468 59.7107 91.5693 63.6138 87.4143 68.5205V68.9888C92.9096 75.3675 96.5285 78.5568 98.2709 78.5568H98.673L100.348 77.5532H100.952C101.89 77.5532 102.582 78.1777 103.029 79.4267C103.029 80.8541 101.443 81.8354 98.2709 82.3707C95.0988 82.3707 90.9662 79.159 85.8729 72.7357H85.2698L85.4709 76.3488V79.8281C85.2028 81.2109 84.5103 81.9023 83.3934 81.9023C82.1424 81.6347 81.5169 80.9433 81.5169 79.8281V79.4267L81.2489 71.7321C80.7574 71.7321 80.4223 71.0407 80.2436 69.6579L81.1148 67.9852L80.7127 52.9306V49.9866C80.7127 46.0612 81.4052 44.0986 82.7902 44.0986Z" fill="url(#paint3_linear_567_634)"/>
<path d="M133.738 33.763C135.696 33.9298 136.609 34.791 136.476 36.3466L135.767 37.5621L134.325 49.7281C133.854 55.2392 134.674 58.7562 136.786 60.2791L136.834 61.2905C136.591 62.568 135.935 63.1613 134.866 63.0703L134.466 63.0362C131.321 60.4853 129.947 56.8764 130.346 52.2097L129.879 52.1699C127.673 56.9961 125.301 59.3012 122.764 59.0852C120.461 58.2176 119.432 56.3616 119.675 53.5171C120.21 47.2504 123.258 41.22 128.82 35.4261C130.63 34.1923 132.269 33.638 133.738 33.763ZM124.109 51.2086L123.683 53.0526L123.574 54.3192L124.242 54.3761C128.291 46.3492 130.393 41.4246 130.549 39.6023L130.281 39.5796C127.453 42.2487 125.395 46.125 124.109 51.2086Z" fill="#313430"/>
<path d="M169.96 53.1313C172.774 53.1313 174.45 55.094 174.986 59.0193V59.6215C174.986 63.9483 172.752 67.9183 168.284 71.5314C170.875 74.0739 175.41 75.3452 181.888 75.3452C182.871 75.6575 183.363 76.3488 183.363 77.4194C183.363 78.6238 182.581 79.2259 181.017 79.2259C176.639 79.2259 172.037 78.1108 167.212 75.8805V77.8208C167.212 82.4153 166.229 84.7125 164.263 84.7125C162.878 84.7125 162.186 82.0584 162.186 76.7503V71.5314L161.985 69.6579L162.454 67.5168L161.985 61.0935V60.8259C161.985 59.6215 162.61 58.7963 163.861 58.3502C165.604 54.871 167.636 53.1313 169.96 53.1313ZM166.609 67.7844C167.904 67.7844 169.356 65.4649 170.965 60.8259V57.9488L170.161 57.079H169.557C167.592 58.4172 166.609 61.9856 166.609 67.7844Z" fill="url(#paint4_linear_567_634)"/>
<path d="M188.271 59.3539L189.477 58.6848C190.549 58.6848 191.331 59.3316 191.822 60.6252C191.108 63.926 190.75 67.3161 190.75 70.7954C190.75 72.535 191.264 74.4308 192.292 76.4827H192.694C193.989 76.4827 195.531 71.3752 197.318 61.1604C197.943 60.6252 198.546 60.3575 199.127 60.3575C200.512 60.3575 201.205 62.8109 201.205 67.7175C201.785 73.1149 202.433 75.8136 203.148 75.8136L204.153 75.4121C205.449 75.9028 206.097 76.5942 206.097 77.4863C205.293 79.1813 204.176 80.0289 202.746 80.0289C201.138 80.0289 199.596 78.423 198.122 75.2114C196.335 78.9583 194.525 80.8318 192.694 80.8318C189.968 80.8318 188.07 77.9993 186.997 72.3343L186.796 70.1932V69.5241C186.796 65.9556 187.288 62.5655 188.271 59.3539Z" fill="url(#paint5_linear_567_634)"/>
<path d="M216.226 56.9451C220.024 57.2574 221.923 59.1085 221.923 62.4986L222.057 63.3684L221.923 73.8063C221.923 75.0107 222.615 76.6388 224 78.6907V78.8245C223.643 80.1181 222.995 80.7649 222.057 80.7649C219.287 79.6051 217.902 77.1518 217.902 73.4048V72.535L217.701 72.4012L217.902 72.1336V71.9997L218.103 62.7663C218.103 61.4727 217.544 60.8259 216.427 60.8259H215.623C213.389 61.718 212.272 66.6024 212.272 75.479C212.272 78.5568 211.49 80.0958 209.927 80.0958C208.72 80.0958 208.095 79.3375 208.05 77.8208V71.1299C208.05 62.4763 208.81 58.1495 210.329 58.1495L210.999 57.9488L212.406 58.1495C213.613 57.3466 214.886 56.9451 216.226 56.9451Z" fill="url(#paint6_linear_567_634)"/>
<path d="M129.997 22.7775C117.779 22.7775 109.153 31.514 109.153 42.2665C109.153 47.1587 111.18 50.4583 113.723 53.6051C114.274 54.2899 114.835 54.9492 115.413 55.6276L115.72 55.9843C116.394 56.7805 117.09 57.6023 117.741 58.4495C119.036 60.1407 120.252 62.0422 120.931 64.2908C121.098 64.8921 121.021 65.5343 120.717 66.0801C120.413 66.6259 119.907 67.032 119.305 67.2117C118.704 67.3913 118.056 67.3303 117.499 67.0416C116.943 66.7529 116.522 66.2595 116.326 65.6667C115.884 64.2016 115.053 62.832 113.912 61.3447C113.309 60.5709 112.687 59.8127 112.045 59.0706L111.75 58.7202C111.173 58.045 110.564 57.3316 109.971 56.5958C107.133 53.086 104.343 48.7384 104.343 42.2633C104.343 28.7111 115.294 18 129.997 18C144.7 18 155.652 28.708 155.652 42.2665C155.652 48.7384 152.862 53.086 150.024 56.599C149.43 57.3316 148.821 58.045 148.244 58.7234L147.949 59.0706C147.275 59.8605 146.65 60.6025 146.083 61.3447C144.941 62.832 144.11 64.2048 143.668 65.6667C143.463 66.2483 143.04 66.729 142.488 67.0087C141.935 67.2884 141.295 67.3455 140.701 67.1681C140.107 66.9907 139.605 66.5926 139.299 66.0566C138.993 65.5206 138.907 64.888 139.06 64.2908C139.743 62.0422 140.958 60.1407 142.257 58.4495C142.905 57.6023 143.6 56.7805 144.277 55.9843L144.582 55.6276C145.159 54.9492 145.72 54.2899 146.272 53.6083C148.815 50.4551 150.841 47.1587 150.841 42.2665C150.841 31.514 142.215 22.7775 129.997 22.7775ZM119.575 72.145H140.419C141.057 72.145 141.669 72.3966 142.12 72.8446C142.571 73.2926 142.824 73.9002 142.824 74.5337C142.824 75.1673 142.571 75.7749 142.12 76.2228C141.669 76.6708 141.057 76.9225 140.419 76.9225H119.575C118.937 76.9225 118.325 76.6708 117.874 76.2228C117.423 75.7749 117.17 75.1673 117.17 74.5337C117.17 73.9002 117.423 73.2926 117.874 72.8446C118.325 72.3966 118.937 72.145 119.575 72.145ZM121.98 84.0887C121.98 83.4552 122.234 82.8476 122.685 82.3996C123.136 81.9517 123.747 81.7 124.385 81.7H135.609C136.247 81.7 136.859 81.9517 137.31 82.3996C137.761 82.8476 138.014 83.4552 138.014 84.0887C138.014 84.7223 137.761 85.3299 137.31 85.7778C136.859 86.2258 136.247 86.4775 135.609 86.4775H124.385C123.747 86.4775 123.136 86.2258 122.685 85.7778C122.234 85.3299 121.98 84.7223 121.98 84.0887Z" fill="url(#paint7_linear_567_634)"/>
<defs>
<linearGradient id="paint0_linear_567_634" x1="0" y1="61" x2="1440" y2="61" gradientUnits="userSpaceOnUse">
<stop stop-color="#607405"/>
<stop stop-color="#B4DA0A"/>
</linearGradient>
<linearGradient id="paint1_linear_567_634" x1="240.634" y1="15.6818" x2="194.06" y2="133.143" gradientUnits="userSpaceOnUse">
<stop stop-color="#FFE839"/>
<stop offset="1"/>
</linearGradient>
<linearGradient id="paint2_linear_567_634" x1="204.286" y1="29.5912" x2="193.477" y2="82.1252" gradientUnits="userSpaceOnUse">
<stop stop-color="#FFE839"/>
<stop offset="1"/>
</linearGradient>
<linearGradient id="paint3_linear_567_634" x1="238.17" y1="42.4308" x2="228.667" y2="83.3281" gradientUnits="userSpaceOnUse">
<stop offset="0.13" stop-color="#FFE839"/>
<stop offset="1"/>
</linearGradient>
<linearGradient id="paint4_linear_567_634" x1="-26.884" y1="41.1825" x2="-18.5999" y2="82.8257" gradientUnits="userSpaceOnUse">
<stop offset="0.24" stop-color="#FFE839"/>
<stop offset="1"/>
</linearGradient>
<linearGradient id="paint5_linear_567_634" x1="17" y1="43.1441" x2="37.7652" y2="112.831" gradientUnits="userSpaceOnUse">
<stop stop-color="#FFE839"/>
<stop offset="1"/>
</linearGradient>
<linearGradient id="paint6_linear_567_634" x1="36.872" y1="47.0673" x2="80.2708" y2="139.878" gradientUnits="userSpaceOnUse">
<stop stop-color="#FFE839"/>
<stop offset="1"/>
</linearGradient>
<linearGradient id="paint7_linear_567_634" x1="129.997" y1="11.0161" x2="129.997" y2="86.4775" gradientUnits="userSpaceOnUse">
<stop offset="0.425" stop-color="#FFE839"/>
<stop offset="1"/>
</linearGradient>
</defs>
</svg>
